<svg xmlns="http://www.w3.org/2000/svg" viewBox="0 0 166 38"><path d="M14.525 2.66c-.023.024-.052.082-.087.175-.035.093-.052.257-.052.49 0 .28.046.595.14.945v11.585c0 1.19-.117 2.333-.35 3.43-.234 1.097-.636 2.07-1.208 2.923-.572.852-1.354 1.528-2.345 2.03-.993.5-2.258.752-3.798.752H6.37c-1.33 0-2.41-.18-3.237-.542-.83-.362-1.476-.822-1.943-1.382-.466-.56-.78-1.172-.945-1.837C.082 20.56 0 19.92 0 19.32c0-.513.064-1.01.192-1.487.13-.478.315-.898.56-1.26.245-.36.542-.653.893-.875.35-.22.747-.333 1.19-.333.42 0 .688.11.805.333.116.222.175.45.175.683 0 .54-.105.97-.315 1.3-.21.33-.438.62-.683.88-.245.26-.472.52-.682.77-.21.26-.315.58-.315.95 0 1.12.373 1.93 1.12 2.42.747.49 1.68.74 2.8.74.98 0 1.832-.2 2.555-.59.723-.39 1.324-.89 1.803-1.5.478-.6.834-1.26 1.067-1.97.233-.71.35-1.38.35-2.01l-.525.03c-.84 0-1.57-.19-2.188-.57-.62-.39-1.132-.87-1.54-1.45-.41-.58-.712-1.21-.91-1.89s-.297-1.3-.297-1.89v-1.23c0-.44.058-.96.175-1.55.117-.59.28-1.21.49-1.85.21-.64.466-1.27.77-1.89.303-.62.63-1.17.98-1.66s.723-.89 1.12-1.19c.396-.3.805-.45 1.225-.45.163 0 .35.03.56.1l2.45.17c.163.02.32.08.472.17s.228.26.228.49zm-3.01 4.2c.023-.117.058-.233.105-.35l.07-.35c.023-.116.035-.245.035-.385 0-.303-.076-.578-.228-.823-.152-.245-.426-.367-.822-.367-.514 0-.934.21-1.26.63-.327.42-.578.922-.752 1.505-.175.583-.298 1.19-.368 1.82-.07.63-.105 1.144-.105 1.54 0 .303.023.74.07 1.313.046.572.157 1.137.333 1.697.175.56.42 1.05.735 1.47.315.42.74.63 1.277.63.046 0 .18-.012.403-.035.22-.023.39-.058.507-.105V6.86zm11.025 9.1c-.35.49-.636 1.04-.857 1.645-.222.607-.41 1.225-.56 1.855-.152.63-.286 1.266-.402 1.907-.11.642-.23 1.255-.35 1.838-.02.07-.08.128-.19.175-.1.047-.22.082-.35.105-.13.023-.25.04-.38.052-.13.012-.23.018-.29.018-.42 0-.76-.023-1.03-.07-.27-.046-.47-.158-.61-.333s-.24-.443-.31-.805c-.07-.36-.13-.845-.17-1.452l.45-10.395c0-.303.17-.455.49-.455.1 0 .25.018.48.052.22.035.45.087.68.157.24.07.43.157.6.26.16.106.24.228.24.368v7.083c.02-.046.06-.14.11-.28.17-.418.36-.936.6-1.552.23-.616.49-1.204.77-1.762.28-.55.58-1.03.89-1.43.32-.39.64-.59.96-.59.42 0 .74.1.97.3.22.2.39.45.51.75s.19.64.21 1c.02.36.04.69.04 1 0 .24-.02.62-.07 1.15-.05.54-.07 1.34-.07 2.41 0 .61.06 1.16.18 1.64.12.49.35.74.7.74.25 0 .49-.12.72-.35.22-.23.41-.52.58-.87.16-.35.29-.72.4-1.12.1-.39.18-.77.23-1.12.04-.44.22-.66.52-.66.21 0 .35.07.42.21.07.14.1.31.1.49v.07c-.03.47-.11.99-.27 1.58-.15.59-.37 1.14-.66 1.66-.29.52-.67.96-1.15 1.31-.48.36-1.05.54-1.7.54-1.05 0-1.72-.38-2.01-1.13-.29-.76-.44-1.88-.44-3.38l.07-2.55z"/><path d="M36.19 21.42c0 .56-.188.992-.56 1.295-.375.304-.8.525-1.278.665-.48.14-.957.228-1.435.263-.48.035-.823.052-1.033.052-.327 0-.73-.035-1.208-.105-.48-.07-.945-.18-1.4-.333-.455-.15-.84-.368-1.155-.647-.31-.28-.47-.63-.47-1.05 0-.257.1-.438.3-.542.2-.105.39-.158.58-.158.26 0 .51.093.75.28.25.187.5.385.77.595.27.21.57.41.9.595.33.187.7.28 1.12.28.19 0 .44-.064.76-.192s.47-.355.47-.683c0-.327-.13-.642-.4-.945-.27-.303-.61-.618-1.01-.945-.4-.326-.84-.665-1.31-1.015-.46-.35-.9-.73-1.31-1.138-.4-.408-.74-.852-1.01-1.33-.27-.478-.4-1.02-.4-1.627 0-.816.26-1.5.79-2.047s1.15-.992 1.86-1.33c.71-.338 1.44-.578 2.19-.718s1.33-.21 1.75-.21c.4 0 .79.082 1.19.245.4.164.6.48.6.945 0 .14-.03.345-.08.613-.06.27-.15.53-.28.788-.13.26-.3.49-.52.69-.22.2-.48.3-.78.3-.09 0-.18-.04-.28-.12-.09-.08-.2-.17-.31-.28-.11-.1-.24-.19-.37-.28-.13-.08-.27-.12-.44-.12-.81 0-1.39.24-1.71.72-.33.48-.49.99-.49 1.53 0 .47.27.96.82 1.47.55.52 1.16 1.03 1.82 1.54.67.52 1.27 1.03 1.82 1.54s.83 1 .83 1.44z"/><path d="M36.96 17.255c.022-1.167.057-2.374.104-3.623.046-1.248.093-2.397.14-3.447 0-.187-.187-.315-.56-.385-.374-.07-.788-.14-1.243-.21s-.87-.18-1.26-.333c-.38-.15-.57-.402-.57-.752 0-.303.31-.478.91-.525.61-.046 1.51-.07 2.7-.07.07 0 .13-.14.18-.42.05-.28.08-.635.09-1.067.02-.432.03-.893.04-1.382.01-.49.03-.95.06-1.38.02-.43.06-.79.12-1.06s.14-.42.23-.42c.12 0 .33.03.63.07.3.05.62.11.94.2.33.08.61.18.86.3s.37.25.37.39l-.38 4.55c0 .24.27.36.79.37.53.01 1.11.03 1.75.06.64.02 1.23.1 1.75.23.53.13.79.43.79.89 0 .05-.02.12-.07.23s-.1.16-.17.16c-.04 0-.11-.03-.19-.1s-.29-.1-.64-.1c-.11 0-.38.01-.79.03-.41.02-.84.06-1.31.11-.47.05-.89.1-1.28.16-.38.06-.6.14-.65.23-.02.04-.05.32-.08.82-.03.5-.07 1.16-.1 1.98-.03.82-.06 1.76-.08 2.82-.02 1.06-.03 2.18-.03 3.34 0 .44.03.87.07 1.29.05.42.12.8.21 1.14.1.34.22.61.37.82.15.21.33.32.54.32.31 0 .59-.13.84-.38.26-.26.49-.61.7-1.05.21-.44.4-.94.56-1.49.17-.55.31-1.13.42-1.73.07-.35.15-.6.25-.75.1-.15.24-.22.42-.22.17 0 .31.05.44.16s.2.34.2.72c0 .18-.01.34-.04.45-.07.42-.2 1-.4 1.73s-.46 1.46-.8 2.17-.75 1.333-1.24 1.87c-.49.54-1.06.803-1.71.803-.63 0-1.18-.18-1.66-.54-.48-.36-.87-.867-1.19-1.51-.31-.64-.55-1.4-.7-2.272-.15-.875-.23-1.814-.23-2.82v-.32z"/><path d="M57.714 19.775c-.047.327-.164.712-.35 1.155-.187.444-.426.87-.717 1.278-.292.408-.636.752-1.033 1.032-.397.28-.817.42-1.26.42-.7 0-1.313-.274-1.837-.822-.525-.548-.846-1.3-.963-2.257-.14.4-.303.84-.49 1.32-.187.48-.42.93-.7 1.35-.28.42-.6.78-.962 1.07-.362.3-.788.44-1.277.44-.257-.02-.438-.06-.542-.12-.105-.06-.345-.1-.718-.12-.56 0-1.032-.18-1.417-.54-.385-.36-.694-.82-.927-1.38-.23-.56-.4-1.17-.5-1.84s-.15-1.29-.15-1.87c0-1.4.08-2.73.23-3.99.15-1.26.41-2.37.76-3.34.35-.96.8-1.73 1.35-2.31.55-.57 1.23-.85 2.05-.85.47 0 .83.04 1.07.13.25.08.48.18.69.28l.67.33c.23.12.58.21 1.05.28.49.28.83.62 1.03 1 .2.39.33.8.39 1.24.06.45.08.91.05 1.4-.02.49 0 .96.07 1.4 0 .05.06.09.17.13.12.03.24.08.37.14.13.06.25.14.35.24s.16.24.16.4v.14c-.23.61-.37 1.15-.42 1.61s-.07 1.03-.07 1.68c0 .33.01.69.03 1.09.02.4.08.76.18 1.09.09.33.22.6.39.83.16.22.37.33.63.33.28 0 .53-.14.75-.42.22-.28.41-.6.56-.96.15-.36.28-.73.37-1.1l.21-.84c.02-.14.07-.24.14-.31s.14-.1.21-.1c.12 0 .23.07.33.2s.16.36.16.68v.27c0 .08-.01.18-.03.3zm-6.475-5.67c0-.257-.03-.56-.07-.91-.05-.35-.13-.676-.25-.98-.12-.303-.3-.56-.54-.77s-.56-.315-.93-.315c-.68 0-1.22.297-1.61.893-.4.595-.71 1.295-.95 2.1-.24.805-.39 1.627-.46 2.467-.07.84-.11 1.517-.11 2.03 0 .397.01.852.05 1.365.03.514.1 1.003.19 1.47.09.467.23.863.4 1.19.17.327.4.49.68.49.65 0 1.16-.262 1.52-.788.36-.525.64-1.178.84-1.96.2-.78.34-1.622.42-2.52.08-.898.16-1.72.23-2.467.04-.396.15-.647.31-.752.16-.105.24-.18.24-.228v-.315z"/><path d="M68.284 24.5c0 .233-.105.396-.315.49-.21.093-.41.14-.6.14l-.7-.07c-.12 0-.18.07-.18.21l-.04.42c.02.63.03 1.423.03 2.38v2.765c0 .933-.03 1.85-.09 2.748-.06.898-.2 1.703-.41 2.415-.21.71-.52 1.283-.91 1.715-.4.432-.93.647-1.58.647-.61 0-1.23-.03-1.86-.087-.63-.06-1.21-.205-1.74-.438s-.96-.578-1.3-1.033c-.34-.455-.51-1.067-.51-1.837s.08-1.558.26-2.362c.17-.805.42-1.587.75-2.345.33-.758.72-1.482 1.18-2.17.46-.688.96-1.3 1.5-1.837.28-.28.59-.56.93-.85.34-.29.64-.53.89-.72v-.03c.04-.49.08-.98.1-1.47.02-.49.03-.99.03-1.5-.12.21-.26.5-.42.86s-.36.71-.58 1.03c-.22.33-.47.62-.75.86-.28.25-.6.37-.95.37-.19 0-.35-.03-.5-.1-.14-.07-.34-.1-.6-.1-.65-.04-1.2-.23-1.63-.54-.43-.31-.77-.73-1.02-1.26s-.41-1.15-.51-1.89c-.09-.73-.14-1.55-.14-2.46 0-1.09.07-2.23.2-3.39.13-1.17.35-2.23.68-3.2.33-.97.77-1.76 1.32-2.38.55-.62 1.25-.93 2.09-.93.09 0 .22.04.37.11s.31.15.49.25c.17.1.35.18.51.25.16.07.3.12.42.14.46.1.9.21 1.3.35.39.14.73.32 1.02.54.28.22.5.52.66.88.16.36.24.81.24 1.35 0 .38-.03.71-.086 1.02-.06.31-.09.69-.09 1.16 0 .19.064.32.2.39.13.07.28.13.45.18.17.05.33.11.47.18.14.07.21.19.21.35 0 .05-.055.16-.16.34l-.194.33c-.07.19-.123.49-.17.89-.05.41-.08.85-.104 1.33-.02.48-.04.97-.05 1.47-.01.5-.02.95-.02 1.35v1.2c0 .5.01.92.03 1.24h.14c.05 0 .09 0 .127-.02.03-.01.07-.02.12-.02.09 0 .22.02.38.06s.32.08.47.14c.15.06.28.13.385.23.11.09.16.21.16.35zM63.84 13.685c0-.257-.024-.548-.07-.875-.048-.327-.137-.636-.266-.928-.13-.292-.3-.537-.51-.735-.213-.198-.483-.298-.812-.298-.446 0-.864.17-1.25.52-.39.35-.73.84-1.023 1.48-.3.64-.53 1.43-.71 2.36-.18.93-.27 1.97-.27 3.11 0 .49.01 1 .05 1.52.03.52.09.99.17 1.41.08.42.21.77.38 1.05s.4.42.68.42c.49 0 .91-.21 1.27-.63.36-.42.67-.94.93-1.56.25-.62.45-1.26.58-1.93.12-.67.2-1.24.22-1.73.02-.68.06-1.14.11-1.38s.1-.4.15-.47c.14-.19.24-.41.28-.67.03-.26.05-.49.05-.7zM63.7 25.83c-.543.373-1.055.898-1.538 1.575s-.9 1.412-1.254 2.205c-.353.793-.63 1.598-.83 2.415-.2.816-.3 1.55-.3 2.205 0 .233.024.49.07.77.048.28.125.542.23.787.106.245.26.45.46.613.2.163.44.245.723.245.5 0 .9-.205 1.21-.613.31-.408.55-.893.73-1.452.18-.56.3-1.132.37-1.715.07-.583.11-1.05.11-1.4v-.315l.02-.805c.02-.397.02-.95.02-1.663V25.83zm15.05-7.14c0 .164-.054.554-.16 1.172-.104.62-.29 1.272-.56 1.96-.268.688-.63 1.295-1.084 1.82-.455.525-1.032.787-1.732.787-.747 0-1.342-.27-1.785-.79-.45-.53-.79-1.16-1.02-1.89-.24-.74-.39-1.51-.46-2.31-.07-.81-.11-1.48-.11-2.02 0-.61.03-1.22.1-1.84.07-.62.11-1.23.14-1.84 0-.19-.1-.31-.28-.35-.19-.05-.37-.07-.53-.07-.28 0-.46.03-.53.1s-.12.15-.14.24l-.14 1.12c-.1.74-.2 1.46-.3 2.15-.11.68-.23 1.29-.35 1.82-.13.52-.28.94-.46 1.26-.18.31-.38.47-.62.47h-.03c-.1 0-.18-.03-.27-.07-.08-.05-.12-.17-.12-.35 0-.14.02-.28.07-.42.18-.82.3-1.5.35-2.03.04-.54.08-1.02.1-1.44v-.25c0-.12 0-.26.02-.42.01-.17.02-.37.02-.6v-1.15s-.03-.94-.07-1.47l-.11-2.07c0-.14.06-.27.17-.39.11-.12.26-.22.45-.31.19-.1.38-.17.59-.21.21-.05.39-.07.56-.07.25 0 .42.09.5.28.08.19.11.41.09.66l-.04.77c-.02.26 0 .42.05.47.06.06.21.11.47.16h.11c.18.02.49.04.91.07.42.02.84.07 1.26.14s.79.18 1.1.33c.32.15.47.37.47.65 0 .12-.02.26-.07.42s-.1.33-.16.51c-.06.17-.12.33-.18.47s-.08.23-.08.28c-.42 1.61-.63 3.3-.63 5.05 0 .14.01.39.03.77.02.37.07.76.14 1.15.07.4.17.75.31 1.05.14.3.31.45.52.45.35 0 .66-.22.94-.65.28-.43.53-.93.74-1.5.21-.57.38-1.15.502-1.73.125-.59.212-1.02.26-1.3.043-.26.12-.42.225-.47.11-.06.207-.09.3-.09.33 0 .49.21.49.63 0 .05-.003.17-.015.37-.02.2-.03.34-.06.44z"/><path d="M91.593 19.775c-.047.327-.164.712-.35 1.155-.187.444-.426.87-.717 1.278-.292.408-.636.752-1.033 1.032-.397.28-.817.42-1.26.42-.7 0-1.313-.274-1.837-.822-.525-.548-.846-1.3-.963-2.257-.14.4-.303.84-.49 1.32-.187.48-.42.93-.7 1.35-.28.42-.6.78-.962 1.07-.36.3-.78.44-1.27.44-.25-.02-.44-.06-.54-.12-.1-.06-.34-.1-.72-.12-.56 0-1.03-.18-1.41-.54-.38-.36-.69-.82-.92-1.38-.23-.56-.4-1.17-.5-1.84s-.15-1.29-.15-1.87c0-1.4.08-2.73.23-3.99.15-1.26.4-2.37.75-3.34.35-.96.8-1.73 1.35-2.31.55-.57 1.23-.85 2.05-.85.47 0 .83.04 1.07.13.25.08.48.18.69.28l.67.33c.24.12.59.21 1.05.28.49.28.84.62 1.04 1 .2.39.33.8.39 1.24.06.45.08.91.06 1.4-.02.49 0 .96.07 1.4 0 .05.06.09.18.13.12.03.24.08.37.14.13.06.25.14.35.24s.16.24.16.4v.14c-.23.61-.37 1.15-.42 1.61s-.07 1.03-.07 1.68c0 .33.01.69.04 1.09.03.4.09.76.18 1.09.09.33.22.6.39.83.17.22.38.33.63.33.28 0 .53-.14.75-.42.22-.28.41-.6.56-.96.15-.36.28-.73.37-1.1l.21-.84c.03-.14.07-.24.14-.31s.14-.1.21-.1c.12 0 .23.07.34.2.1.13.16.36.16.68v.27c0 .08-.01.18-.03.3zm-6.475-5.67c0-.257-.023-.56-.07-.91-.047-.35-.128-.676-.245-.98-.117-.303-.297-.56-.542-.77s-.55-.315-.92-.315c-.67 0-1.21.297-1.61.893-.39.595-.71 1.295-.94 2.1-.23.805-.38 1.627-.45 2.467-.07.84-.1 1.517-.1 2.03 0 .397.02.852.05 1.365.04.514.1 1.003.2 1.47.1.467.23.863.41 1.19.18.327.4.49.68.49.66 0 1.16-.262 1.52-.788.37-.525.65-1.178.84-1.96.2-.78.34-1.622.42-2.52l.23-2.467c.05-.396.15-.647.32-.752.17-.105.25-.18.25-.228v-.315z"/><path d="M102.303 14.98c-.164.303-.327.63-.49.98-.164.35-.31.688-.438 1.015-.128.327-.245.636-.35.928-.105.292-.192.53-.263.717-.047.117-.122.362-.227.735-.105.374-.216.788-.333 1.242-.117.455-.222.905-.315 1.348-.093.443-.14.805-.14 1.085 0 .117-.105.222-.315.315-.21.094-.48.14-.805.14-.514 0-.922-.07-1.225-.21s-.53-.368-.683-.683-.25-.723-.28-1.225c-.04-.5-.06-1.125-.06-1.873V16.87c0-.186-.01-.373-.02-.56-.02-.187-.06-.303-.13-.35-.12.047-.27.356-.44.927-.18.572-.35 1.255-.51 2.048-.17.793-.3 1.633-.4 2.52s-.16 1.68-.16 2.38c0 .256-.14.408-.4.455-.27.046-.57.07-.9.07-.12 0-.28-.018-.49-.053-.21-.035-.43-.076-.67-.122-.24-.047-.45-.11-.63-.193-.19-.082-.29-.18-.32-.297-.11-.303-.2-.81-.26-1.522-.06-.71-.09-1.79-.09-3.237 0-.863.02-1.867.05-3.01l.12-4.025c0-.21-.02-.48-.04-.82-.03-.34-.04-.53-.04-.57 0-.18.07-.29.22-.33.15-.03.26-.05.33-.05.16 0 .35.02.57.06.22.04.44.08.67.13s.42.1.61.16.31.11.38.16v8.44l.42-1.61c.16-.63.34-1.25.52-1.85s.39-1.16.63-1.68c.23-.51.48-.88.73-1.12.09-.07.27-.12.52-.15s.46-.05.63-.05c.11 0 .26.02.43.05.18.04.35.09.51.16.162.07.31.16.44.27.13.1.204.23.23.37v6.04s.02.16.07.16c.02 0 .15-.31.38-.94s.5-1.37.8-2.24c.302-.86.63-1.75.974-2.66.35-.91.66-1.63.94-2.17.05-.09.21-.14.47-.16.27-.01.51-.02.72-.02.16 0 .38.05.66.16s.55.25.82.44c.27.19.5.4.7.63.2.23.297.48.297.74 0 .05-.07.18-.21.4-.14.22-.233.45-.28.69-.07.32-.135.64-.19.96-.06.31-.1.64-.14.98-.03.34-.06.7-.07 1.08-.01.39-.015.82-.015 1.31 0 .42.01.84.05 1.26.03.42.09.8.17 1.14.08.34.19.62.33.83.14.21.32.32.56.32.35 0 .64-.11.89-.33.24-.222.46-.52.64-.893.19-.37.35-.81.48-1.31s.25-1.02.37-1.555c.09-.56.3-.84.63-.84.183 0 .31.044.364.14.06.09.09.3.09.63 0 .16-.01.29-.04.38-.02.305-.12.777-.3 1.42-.17.64-.42 1.28-.73 1.925-.31.64-.705 1.2-1.17 1.68s-1.005.72-1.61.72c-.72 0-1.31-.17-1.77-.51-.46-.34-.82-.79-1.07-1.37s-.43-1.23-.54-1.98c-.1-.75-.155-1.53-.155-2.35v-.25l.21-2.87z"/><path fill="#66499E" d="M123.792 6.16c0 .234-.047.42-.14.56-.093.14-.21.245-.35.315-.14.07-.28.117-.42.14-.14.023-.257.035-.35.035-.257 0-.46-.094-.612-.283-.152-.188-.292-.418-.42-.69-.128-.27-.27-.564-.42-.882-.152-.318-.362-.612-.63-.883-.27-.27-.613-.5-1.033-.69s-.968-.282-1.645-.282c-.607 0-1.144.128-1.61.385-.467.257-.857.583-1.173.98-.32.397-.55.84-.7 1.33-.16.49-.23.957-.23 1.4 0 .747.13 1.424.4 2.03.27.607.64 1.19 1.14 1.75.49.56 1.06 1.103 1.73 1.627s1.4 1.08 2.22 1.663c.67.49 1.33.992 1.98 1.505.64.514 1.21 1.062 1.71 1.645s.9 1.208 1.2 1.873c.3.665.45 1.382.45 2.152 0 .863-.24 1.575-.72 2.135-.48.56-1.08 1.01-1.81 1.348-.73.338-1.53.572-2.42.7-.89.128-1.73.192-2.52.192-.82 0-1.68-.07-2.59-.21-.91-.14-1.75-.38-2.52-.718s-1.41-.77-1.91-1.295c-.5-.525-.75-1.172-.75-1.942 0-.7.24-1.248.71-1.645.48-.396 1.17-.688 2.08-.875-.05.14-.15.38-.3.718-.15.338-.23.8-.23 1.382 0 .677.21 1.208.63 1.592.42.385.92.683 1.5.893.58.21 1.18.344 1.8.403.62.058 1.12.087 1.52.087.26 0 .61-.047 1.07-.14.45-.093.89-.233 1.33-.42.43-.186.81-.437 1.13-.75.32-.314.49-.693.49-1.136 0-.35-.11-.72-.34-1.11-.23-.39-.52-.78-.9-1.19-.37-.41-.8-.82-1.29-1.24-.49-.42-1.02-.84-1.58-1.26-.82-.63-1.62-1.27-2.42-1.92-.79-.66-1.5-1.33-2.13-2.03-.63-.7-1.14-1.43-1.54-2.19s-.6-1.56-.6-2.4c0-1.28.24-2.37.72-3.27.47-.9 1.09-1.63 1.85-2.19s1.59-.97 2.5-1.23c.91-.26 1.8-.39 2.66-.39.65 0 1.33.05 2.05.16.71.11 1.36.26 1.96.46s1.08.45 1.47.77.58.68.58 1.1c0 .32-.11.63-.34.92-.22.29-.33.61-.33.96z"/><path fill="#66499E" d="M127.083 17.255c.023-1.167.058-2.374.105-3.623.046-1.248.093-2.397.14-3.447 0-.187-.187-.315-.56-.385-.374-.07-.788-.14-1.243-.21s-.875-.18-1.26-.333c-.385-.15-.577-.402-.577-.752 0-.303.303-.478.91-.525.607-.046 1.505-.07 2.695-.07.07 0 .128-.14.175-.42.046-.28.076-.635.087-1.067.012-.432.023-.893.035-1.382.012-.49.03-.95.053-1.38.023-.43.064-.79.122-1.06s.134-.42.228-.42c.117 0 .327.03.63.07.303.05.618.11.945.2.327.08.612.18.857.3s.368.25.368.39l-.385 4.55c0 .24.263.36.788.37.525.01 1.108.03 1.75.06.642.02 1.225.1 1.75.23.525.13.788.43.788.89 0 .05-.023.12-.07.23s-.105.16-.175.16c-.05 0-.12-.03-.2-.1-.08-.07-.3-.1-.65-.1-.12 0-.38.01-.79.03-.41.02-.85.06-1.31.1-.47.05-.9.1-1.28.16-.39.06-.6.14-.65.23-.03.05-.06.32-.09.82-.04.51-.07 1.16-.11 1.98-.04.82-.07 1.76-.09 2.82-.02 1.06-.04 2.18-.04 3.34 0 .45.02.88.07 1.3.05.42.12.8.21 1.14.09.34.21.61.37.82.15.21.33.32.54.32.3 0 .58-.13.84-.39.26-.25.49-.6.7-1.05.21-.44.4-.94.56-1.49.16-.54.3-1.12.42-1.73.07-.35.15-.6.24-.75.09-.15.23-.23.42-.23.16 0 .31.05.44.16s.19.34.19.71c0 .19-.02.34-.04.46-.07.42-.21 1-.4 1.73-.2.74-.47 1.46-.81 2.17s-.75 1.34-1.24 1.88c-.49.54-1.06.81-1.72.81-.63 0-1.19-.18-1.66-.54-.48-.36-.87-.86-1.19-1.5-.31-.64-.54-1.4-.7-2.27-.15-.87-.22-1.81-.22-2.82v-.32z"/><path fill="#66499E" d="M147.837 19.775c-.047.327-.164.712-.35 1.155-.187.444-.426.87-.717 1.278-.292.408-.636.752-1.033 1.032-.397.28-.817.42-1.26.42-.7 0-1.313-.274-1.837-.822-.525-.548-.846-1.3-.963-2.257-.14.4-.303.84-.49 1.32-.187.48-.42.93-.7 1.35-.28.42-.6.78-.962 1.07-.362.3-.788.44-1.277.44-.257-.02-.438-.06-.542-.12-.105-.06-.345-.1-.718-.12-.56 0-1.032-.18-1.417-.54-.38-.36-.69-.82-.92-1.38-.23-.56-.4-1.17-.51-1.84s-.15-1.29-.15-1.87c0-1.4.08-2.73.23-3.99.15-1.26.41-2.37.76-3.34.35-.96.8-1.73 1.35-2.31.55-.57 1.23-.85 2.05-.85.47 0 .82.04 1.07.13.25.08.47.18.68.28l.67.33c.23.12.58.21 1.05.28.49.28.83.62 1.03 1 .2.39.33.8.39 1.24.06.45.08.91.06 1.4-.03.49 0 .96.07 1.4 0 .05.06.09.17.13.12.03.24.08.37.14.13.06.25.14.35.24s.16.24.16.4v.14c-.24.61-.38 1.15-.42 1.61s-.07 1.03-.07 1.68c0 .33.01.69.03 1.09s.08.76.18 1.09c.09.33.22.6.39.83.16.22.37.33.63.33.28 0 .53-.14.75-.42.22-.28.41-.6.56-.96.15-.36.28-.73.37-1.1l.21-.84c.03-.14.07-.24.14-.31s.14-.1.21-.1c.12 0 .23.07.34.2.1.13.15.36.15.68v.27c0 .08-.01.18-.03.3zm-6.475-5.67c0-.257-.023-.56-.07-.91-.047-.35-.128-.676-.245-.98-.117-.303-.297-.56-.542-.77s-.555-.315-.927-.315c-.677 0-1.214.297-1.61.893-.397.595-.712 1.295-.945 2.1-.233.805-.385 1.627-.455 2.467-.07.84-.105 1.517-.105 2.03 0 .397.018.852.053 1.365.035.514.1 1.003.192 1.47.093.467.228.863.402 1.19.175.327.403.49.683.49.653 0 1.16-.262 1.522-.788.36-.525.642-1.178.84-1.96.198-.78.338-1.622.42-2.52.08-.898.157-1.72.227-2.467.047-.396.152-.647.315-.752.163-.105.245-.18.245-.228v-.315z"/><path fill="#66499E" d="M153.822 22.575c0 .28-.1.525-.298.735-.198.21-.443.396-.735.56-.3.163-.6.286-.91.368-.32.082-.58.123-.79.123-.4 0-.84-.04-1.32-.12-.48-.08-.88-.25-1.21-.5-.4-.3-.71-.78-.95-1.45-.24-.66-.42-1.45-.54-2.38-.13-.92-.22-1.94-.26-3.08-.05-1.13-.07-2.31-.07-3.55 0-.51.01-1.08.03-1.71.02-.63.06-1.28.12-1.96.05-.67.12-1.36.19-2.06s.14-1.36.21-1.99l.22-1.43c.08-.51.18-1 .3-1.47s.24-.88.38-1.26.29-.64.45-.8c.19-.18.44-.31.75-.36.31-.06.6-.09.85-.09.53 0 .96.14 1.29.42.33.28.58.66.75 1.14.17.48.29 1.03.35 1.65.06.62.08 1.28.08 1.98 0 1.1-.04 2.27-.11 3.5-.07 1.24-.22 2.49-.44 3.75-.22 1.26-.54 2.49-.95 3.68-.41 1.19-.95 2.27-1.63 3.25.02.33.06.71.12 1.14.06.43.14.84.26 1.21s.27.69.45.94.43.39.74.39c.28 0 .5-.06.66-.19.16-.13.31-.27.44-.44.13-.16.25-.31.38-.44.12-.13.29-.19.5-.19.23 0 .39.07.47.21.08.14.12.31.12.49zm-2.625-16.45c0-.233-.012-.513-.035-.84-.023-.326-.06-.647-.105-.962-.047-.315-.117-.583-.21-.805-.094-.222-.222-.333-.385-.333-.21 0-.385.274-.525.822-.14.548-.25 1.277-.333 2.188-.082.91-.146 1.955-.192 3.132-.047 1.18-.07 2.397-.07 3.658v1.855s.005.694.017 1.033.02.647.05.927c.77-1.843 1.26-3.628 1.47-5.355.21-1.727.31-3.5.31-5.32zm14.595 9.485c0 .187-.035.566-.105 1.138s-.164 1.254-.28 2.047c-.094.443-.216.957-.368 1.54-.16.583-.36 1.132-.62 1.645-.26.513-.58.95-.97 1.313-.39.36-.86.542-1.42.542-.59 0-1.05-.105-1.4-.315s-.64-.478-.86-.805c-.23-.327-.41-.676-.56-1.05-.16-.373-.31-.723-.48-1.05-.17-.326-.37-.595-.6-.805-.23-.21-.55-.315-.95-.315h-.46v2.1c0 .35.03.776.09 1.278.05.502.13.95.22 1.347-.12.046-.32.087-.6.123-.28.035-.48.053-.6.053-.35 0-.64-.012-.86-.035-.22-.02-.4-.08-.53-.17-.13-.09-.22-.23-.26-.42-.05-.18-.07-.44-.07-.77V1.82c0-.327-.03-.59-.09-.788-.06-.198-.09-.344-.09-.438 0-.163.11-.303.33-.42.23-.114.65-.174 1.28-.174.4 0 .73.035 1.01.105.28.07.51.152.7.245.23.094.43.2.59.315-.14.583-.26 1.365-.37 2.345-.11.98-.19 2.036-.26 3.167-.07 1.132-.12 2.264-.16 3.395-.04 1.132-.05 2.152-.05 3.063.09-.21.24-.548.44-1.015.19-.466.43-.927.71-1.382.28-.455.6-.857.98-1.208.37-.35.79-.525 1.26-.525.53 0 .95.157 1.24.473.29.315.5.688.63 1.12.12.432.2.875.22 1.33.022.455.04.834.04 1.138 0 .467-.1.998-.28 1.592-.19.595-.45 1.173-.79 1.732-.34.56-.74 1.068-1.21 1.522-.47.455-.97.8-1.51 1.033.37.117.73.304 1.062.56.335.257.63.62.89 1.085.09.187.18.397.26.63.08.233.17.455.26.665.095.21.21.385.35.525.14.14.34.21.597.21.35 0 .65-.175.9-.525.243-.35.453-.822.63-1.417.173-.595.324-1.283.453-2.065.13-.78.25-1.615.37-2.502.05-.32.13-.54.25-.64.12-.1.23-.16.35-.16.4 0 .6.27.6.81zm-5.25-1.715c.023-.187.04-.39.053-.613.01-.22.017-.46.017-.717 0-.467-.04-.88-.122-1.243-.082-.36-.25-.542-.508-.542-.397 0-.782.21-1.155.63-.374.42-.706.95-.998 1.593-.3.642-.53 1.365-.7 2.17-.18.805-.27 1.592-.27 2.362 0 .094.02.17.07.228.04.06.18.087.42.087.42 0 .81-.11 1.17-.332.36-.222.68-.52.96-.893.28-.373.51-.8.7-1.278.18-.478.3-.962.35-1.452z"/></svg>