<svg xmlns="http://www.w3.org/2000/svg" viewBox="0 0 1000 1000"><path fill="#ffffff" d="M972.1,972.1c-23.9,23.8-62.6,23.8-86.5,0L693.1,779.5C525.5,904.8,287.7,893,135.3,740.6c-167.1-167.1-167.1-438.1,0-605.3c167.2-167.1,438.2-167.1,605.3,0c152.4,152.4,164.2,390,38.9,557.8l192.6,192.5C996,909.5,996,948.2,972.1,972.1L972.1,972.1z M654.2,221.9c-119.3-119.5-313-119.5-432.3,0c-119.5,119.3-119.5,313,0,432.3c119.3,119.3,313,119.3,432.3,0C773.5,534.8,773.5,341.2,654.2,221.9L654.2,221.9z M637.3,471.5H474v140.3h-81.4V471.5H229.3V390h163.2V252.2H474V390h163.3V471.5L637.3,471.5z"/></svg>